<mxfile host="app.diagrams.net" agent="Mozilla/5.0 (Windows NT 10.0; Win64; x64) AppleWebKit/537.36 (KHTML, like Gecko) Chrome/126.0.0.0 Safari/537.36 OPR/112.0.0.0 (Edition std-1)" version="24.7.12">
  <diagram name="Page-1" id="mTDXw9lq9HjQsTrBYcQW">
    <mxGraphModel dx="1393" dy="796" grid="1" gridSize="10" guides="1" tooltips="1" connect="1" arrows="1" fold="1" page="1" pageScale="1" pageWidth="850" pageHeight="1100" math="0" shadow="0">
      <root>
        <mxCell id="0" />
        <mxCell id="1" parent="0" />
        <mxCell id="9ndLu7jOII5W7Lretga1-7" value="" style="rounded=1;whiteSpace=wrap;html=1;" vertex="1" parent="1">
          <mxGeometry x="190" y="120" width="500" height="530" as="geometry" />
        </mxCell>
        <mxCell id="9ndLu7jOII5W7Lretga1-11" style="edgeStyle=orthogonalEdgeStyle;rounded=0;orthogonalLoop=1;jettySize=auto;html=1;" edge="1" parent="1" source="9ndLu7jOII5W7Lretga1-1" target="9ndLu7jOII5W7Lretga1-6">
          <mxGeometry relative="1" as="geometry" />
        </mxCell>
        <mxCell id="9ndLu7jOII5W7Lretga1-15" value="Managed" style="edgeLabel;html=1;align=center;verticalAlign=middle;resizable=0;points=[];" vertex="1" connectable="0" parent="9ndLu7jOII5W7Lretga1-11">
          <mxGeometry x="-0.0096" y="2" relative="1" as="geometry">
            <mxPoint x="1" y="1" as="offset" />
          </mxGeometry>
        </mxCell>
        <mxCell id="9ndLu7jOII5W7Lretga1-1" value="" style="outlineConnect=0;dashed=0;verticalLabelPosition=bottom;verticalAlign=top;align=center;html=1;shape=mxgraph.aws3.traditional_server;fillColor=#7D7C7C;gradientColor=none;" vertex="1" parent="1">
          <mxGeometry x="240" y="500" width="46.5" height="63" as="geometry" />
        </mxCell>
        <mxCell id="9ndLu7jOII5W7Lretga1-14" style="edgeStyle=orthogonalEdgeStyle;rounded=0;orthogonalLoop=1;jettySize=auto;html=1;startArrow=classic;startFill=1;fillColor=#f8cecc;strokeColor=#b85450;dashed=1;dashPattern=12 12;" edge="1" parent="1" source="9ndLu7jOII5W7Lretga1-20" target="9ndLu7jOII5W7Lretga1-6">
          <mxGeometry relative="1" as="geometry" />
        </mxCell>
        <mxCell id="9ndLu7jOII5W7Lretga1-25" value="Managed Agents" style="edgeLabel;html=1;align=center;verticalAlign=middle;resizable=0;points=[];" vertex="1" connectable="0" parent="9ndLu7jOII5W7Lretga1-14">
          <mxGeometry x="-0.1577" relative="1" as="geometry">
            <mxPoint y="-5" as="offset" />
          </mxGeometry>
        </mxCell>
        <mxCell id="9ndLu7jOII5W7Lretga1-2" value="" style="outlineConnect=0;dashed=0;verticalLabelPosition=bottom;verticalAlign=top;align=center;html=1;shape=mxgraph.aws3.traditional_server;fillColor=#33FF99;strokeColor=#9673a6;" vertex="1" parent="1">
          <mxGeometry x="416.75" y="250" width="46.5" height="63" as="geometry" />
        </mxCell>
        <mxCell id="9ndLu7jOII5W7Lretga1-3" value="" style="outlineConnect=0;dashed=0;verticalLabelPosition=bottom;verticalAlign=top;align=center;html=1;shape=mxgraph.aws3.traditional_server;fillColor=#7D7C7C;gradientColor=none;" vertex="1" parent="1">
          <mxGeometry x="590.01" y="500" width="46.5" height="63" as="geometry" />
        </mxCell>
        <mxCell id="9ndLu7jOII5W7Lretga1-35" style="edgeStyle=orthogonalEdgeStyle;rounded=0;orthogonalLoop=1;jettySize=auto;html=1;dashed=1;dashPattern=12 12;fillColor=#f8cecc;strokeColor=#b85450;startArrow=classic;startFill=1;" edge="1" parent="1" source="9ndLu7jOII5W7Lretga1-4" target="9ndLu7jOII5W7Lretga1-2">
          <mxGeometry relative="1" as="geometry" />
        </mxCell>
        <mxCell id="9ndLu7jOII5W7Lretga1-36" value="Alerts/Tickets" style="edgeLabel;html=1;align=center;verticalAlign=middle;resizable=0;points=[];" vertex="1" connectable="0" parent="9ndLu7jOII5W7Lretga1-35">
          <mxGeometry x="0.0415" y="2" relative="1" as="geometry">
            <mxPoint as="offset" />
          </mxGeometry>
        </mxCell>
        <mxCell id="9ndLu7jOII5W7Lretga1-4" value="" style="outlineConnect=0;dashed=0;verticalLabelPosition=bottom;verticalAlign=top;align=center;html=1;shape=mxgraph.aws3.traditional_server;fillColor=#CC99FF;gradientColor=none;" vertex="1" parent="1">
          <mxGeometry x="590.01" y="250" width="46.5" height="63" as="geometry" />
        </mxCell>
        <mxCell id="9ndLu7jOII5W7Lretga1-52" style="rounded=0;orthogonalLoop=1;jettySize=auto;html=1;" edge="1" parent="1" source="9ndLu7jOII5W7Lretga1-5" target="9ndLu7jOII5W7Lretga1-43">
          <mxGeometry relative="1" as="geometry" />
        </mxCell>
        <mxCell id="9ndLu7jOII5W7Lretga1-5" value="" style="outlineConnect=0;dashed=0;verticalLabelPosition=bottom;verticalAlign=top;align=center;html=1;shape=mxgraph.aws3.traditional_server;fillColor=#EA6B66;strokeColor=#b85450;" vertex="1" parent="1">
          <mxGeometry x="716.76" y="117" width="46.5" height="63" as="geometry" />
        </mxCell>
        <mxCell id="9ndLu7jOII5W7Lretga1-6" value="" style="outlineConnect=0;dashed=0;verticalLabelPosition=bottom;verticalAlign=top;align=center;html=1;shape=mxgraph.aws3.traditional_server;fillColor=#FF66FF;strokeColor=#9673a6;" vertex="1" parent="1">
          <mxGeometry x="416.75" y="500" width="46.5" height="63" as="geometry" />
        </mxCell>
        <mxCell id="9ndLu7jOII5W7Lretga1-8" value="VULTR" style="text;html=1;align=center;verticalAlign=middle;whiteSpace=wrap;rounded=0;" vertex="1" parent="1">
          <mxGeometry x="210" y="150" width="60" height="30" as="geometry" />
        </mxCell>
        <mxCell id="9ndLu7jOII5W7Lretga1-9" value="C2 Server" style="text;html=1;align=center;verticalAlign=middle;whiteSpace=wrap;rounded=0;" vertex="1" parent="1">
          <mxGeometry x="710.01" y="180" width="60" height="30" as="geometry" />
        </mxCell>
        <mxCell id="9ndLu7jOII5W7Lretga1-10" value="Fleet server" style="text;html=1;align=center;verticalAlign=middle;whiteSpace=wrap;rounded=0;" vertex="1" parent="1">
          <mxGeometry x="415" y="570" width="60" height="30" as="geometry" />
        </mxCell>
        <mxCell id="9ndLu7jOII5W7Lretga1-12" style="edgeStyle=orthogonalEdgeStyle;rounded=0;orthogonalLoop=1;jettySize=auto;html=1;entryX=1;entryY=0.5;entryDx=0;entryDy=0;entryPerimeter=0;" edge="1" parent="1" source="9ndLu7jOII5W7Lretga1-3" target="9ndLu7jOII5W7Lretga1-6">
          <mxGeometry relative="1" as="geometry" />
        </mxCell>
        <mxCell id="9ndLu7jOII5W7Lretga1-16" value="Managed" style="edgeLabel;html=1;align=center;verticalAlign=middle;resizable=0;points=[];" vertex="1" connectable="0" parent="9ndLu7jOII5W7Lretga1-12">
          <mxGeometry x="-0.1953" y="-1" relative="1" as="geometry">
            <mxPoint as="offset" />
          </mxGeometry>
        </mxCell>
        <mxCell id="9ndLu7jOII5W7Lretga1-17" value="Windows Server RDP Enabled" style="text;html=1;align=center;verticalAlign=middle;whiteSpace=wrap;rounded=0;" vertex="1" parent="1">
          <mxGeometry x="228.25" y="570" width="70" height="30" as="geometry" />
        </mxCell>
        <mxCell id="9ndLu7jOII5W7Lretga1-18" value="Unbuntu Server SSH Enabled" style="text;html=1;align=center;verticalAlign=middle;whiteSpace=wrap;rounded=0;" vertex="1" parent="1">
          <mxGeometry x="580" y="570" width="73.25" height="30" as="geometry" />
        </mxCell>
        <mxCell id="9ndLu7jOII5W7Lretga1-22" value="osTicket Server" style="text;html=1;align=center;verticalAlign=middle;whiteSpace=wrap;rounded=0;" vertex="1" parent="1">
          <mxGeometry x="563.25" y="320" width="90" height="30" as="geometry" />
        </mxCell>
        <mxCell id="9ndLu7jOII5W7Lretga1-26" style="rounded=0;orthogonalLoop=1;jettySize=auto;html=1;entryX=0;entryY=0.5;entryDx=0;entryDy=0;entryPerimeter=0;fillColor=#dae8fc;strokeColor=#6c8ebf;dashed=1;dashPattern=12 12;" edge="1" parent="1" source="9ndLu7jOII5W7Lretga1-1" target="9ndLu7jOII5W7Lretga1-2">
          <mxGeometry relative="1" as="geometry" />
        </mxCell>
        <mxCell id="9ndLu7jOII5W7Lretga1-30" value="Foward Logs Via Agent" style="edgeLabel;html=1;align=center;verticalAlign=middle;resizable=0;points=[];" vertex="1" connectable="0" parent="9ndLu7jOII5W7Lretga1-26">
          <mxGeometry x="-0.069" y="2" relative="1" as="geometry">
            <mxPoint x="-33" y="52" as="offset" />
          </mxGeometry>
        </mxCell>
        <mxCell id="9ndLu7jOII5W7Lretga1-28" style="rounded=0;orthogonalLoop=1;jettySize=auto;html=1;entryX=1;entryY=0.5;entryDx=0;entryDy=0;entryPerimeter=0;fillColor=#dae8fc;strokeColor=#6c8ebf;dashed=1;dashPattern=12 12;" edge="1" parent="1" source="9ndLu7jOII5W7Lretga1-3" target="9ndLu7jOII5W7Lretga1-2">
          <mxGeometry relative="1" as="geometry" />
        </mxCell>
        <mxCell id="9ndLu7jOII5W7Lretga1-31" value="Foward Logs Via Agent" style="edgeLabel;html=1;align=center;verticalAlign=middle;resizable=0;points=[];" vertex="1" connectable="0" parent="9ndLu7jOII5W7Lretga1-28">
          <mxGeometry x="-0.3604" y="-2" relative="1" as="geometry">
            <mxPoint x="9" y="20" as="offset" />
          </mxGeometry>
        </mxCell>
        <mxCell id="9ndLu7jOII5W7Lretga1-20" value="Elastic and Kibana" style="text;html=1;align=center;verticalAlign=middle;whiteSpace=wrap;rounded=0;" vertex="1" parent="1">
          <mxGeometry x="405" y="323" width="70" height="30" as="geometry" />
        </mxCell>
        <mxCell id="9ndLu7jOII5W7Lretga1-32" value="Private Network: 172.31.0.0/24&lt;div&gt;IP Range: 172.31.0.1-254&lt;/div&gt;&lt;div&gt;Subnet Maksk:255.255.255.0&lt;/div&gt;" style="text;html=1;align=left;verticalAlign=middle;whiteSpace=wrap;rounded=0;" vertex="1" parent="1">
          <mxGeometry x="200" y="180" width="170" height="120" as="geometry" />
        </mxCell>
        <mxCell id="9ndLu7jOII5W7Lretga1-49" style="rounded=0;orthogonalLoop=1;jettySize=auto;html=1;" edge="1" parent="1" source="9ndLu7jOII5W7Lretga1-37" target="9ndLu7jOII5W7Lretga1-2">
          <mxGeometry relative="1" as="geometry" />
        </mxCell>
        <mxCell id="9ndLu7jOII5W7Lretga1-37" value="" style="outlineConnect=0;dashed=0;verticalLabelPosition=bottom;verticalAlign=top;align=center;html=1;shape=mxgraph.aws3.internet_gateway;fillColor=#F58534;gradientColor=none;" vertex="1" parent="1">
          <mxGeometry x="410.5" y="140" width="49.5" height="50" as="geometry" />
        </mxCell>
        <mxCell id="9ndLu7jOII5W7Lretga1-40" value="" style="verticalLabelPosition=bottom;html=1;verticalAlign=top;align=center;strokeColor=#b85450;fillColor=#f8cecc;shape=mxgraph.azure.laptop;pointerEvents=1;" vertex="1" parent="1">
          <mxGeometry x="710.01" y="20" width="83.25" height="50" as="geometry" />
        </mxCell>
        <mxCell id="9ndLu7jOII5W7Lretga1-47" style="rounded=0;orthogonalLoop=1;jettySize=auto;html=1;" edge="1" parent="1" source="9ndLu7jOII5W7Lretga1-42" target="9ndLu7jOII5W7Lretga1-43">
          <mxGeometry relative="1" as="geometry" />
        </mxCell>
        <mxCell id="9ndLu7jOII5W7Lretga1-51" value="Connect to Elastic/Kibana via Web GUI" style="edgeLabel;html=1;align=center;verticalAlign=middle;resizable=0;points=[];" vertex="1" connectable="0" parent="9ndLu7jOII5W7Lretga1-47">
          <mxGeometry x="-0.1705" y="-3" relative="1" as="geometry">
            <mxPoint as="offset" />
          </mxGeometry>
        </mxCell>
        <mxCell id="9ndLu7jOII5W7Lretga1-42" value="" style="verticalLabelPosition=bottom;html=1;verticalAlign=top;align=center;strokeColor=none;fillColor=#00BEF2;shape=mxgraph.azure.laptop;pointerEvents=1;" vertex="1" parent="1">
          <mxGeometry x="20" y="25" width="83.25" height="50" as="geometry" />
        </mxCell>
        <mxCell id="9ndLu7jOII5W7Lretga1-48" style="rounded=0;orthogonalLoop=1;jettySize=auto;html=1;" edge="1" parent="1" source="9ndLu7jOII5W7Lretga1-43" target="9ndLu7jOII5W7Lretga1-37">
          <mxGeometry relative="1" as="geometry" />
        </mxCell>
        <mxCell id="9ndLu7jOII5W7Lretga1-43" value="" style="ellipse;shape=cloud;whiteSpace=wrap;html=1;" vertex="1" parent="1">
          <mxGeometry x="360" y="10" width="145" height="80" as="geometry" />
        </mxCell>
        <mxCell id="9ndLu7jOII5W7Lretga1-44" value="The Internet" style="text;html=1;align=center;verticalAlign=middle;whiteSpace=wrap;rounded=0;" vertex="1" parent="1">
          <mxGeometry x="405.25" y="35" width="60" height="30" as="geometry" />
        </mxCell>
        <mxCell id="9ndLu7jOII5W7Lretga1-45" value="Attacker Laptop&lt;div&gt;Kali Linux&lt;/div&gt;" style="text;html=1;align=center;verticalAlign=middle;whiteSpace=wrap;rounded=0;" vertex="1" parent="1">
          <mxGeometry x="707.4499999999999" y="75" width="88.37" height="30" as="geometry" />
        </mxCell>
        <mxCell id="9ndLu7jOII5W7Lretga1-46" style="rounded=0;orthogonalLoop=1;jettySize=auto;html=1;entryX=0.938;entryY=0.45;entryDx=0;entryDy=0;entryPerimeter=0;" edge="1" parent="1" source="9ndLu7jOII5W7Lretga1-40" target="9ndLu7jOII5W7Lretga1-43">
          <mxGeometry relative="1" as="geometry" />
        </mxCell>
        <mxCell id="9ndLu7jOII5W7Lretga1-50" value="Analyst Laptop" style="text;html=1;align=center;verticalAlign=middle;whiteSpace=wrap;rounded=0;" vertex="1" parent="1">
          <mxGeometry x="16.619999999999997" y="80" width="90" height="30" as="geometry" />
        </mxCell>
      </root>
    </mxGraphModel>
  </diagram>
</mxfile>
